<svg width="663" height="366" viewBox="0 0 663 366" fill="none" xmlns="http://www.w3.org/2000/svg">
<rect width="663" height="366" fill="black"/>
<path fill-rule="evenodd" clip-rule="evenodd" d="M270 222.838C292.002 222.838 309.838 205.002 309.838 183C309.838 160.998 292.002 143.162 270 143.162C247.998 143.162 230.162 160.998 230.162 183C230.162 205.002 247.998 222.838 270 222.838ZM270 230C295.957 230 317 208.957 317 183C317 157.043 295.957 136 270 136C244.043 136 223 157.043 223 183C223 208.957 244.043 230 270 230Z" fill="#00E8F7"/>
<path fill-rule="evenodd" clip-rule="evenodd" d="M302.057 216.793L234.189 152.395L239.119 147.199L306.987 211.597L302.057 216.793Z" fill="#00E8F7"/>
<path fill-rule="evenodd" clip-rule="evenodd" d="M236.31 215.858L300.363 146.814L305.613 151.685L241.56 220.729L236.31 215.858Z" fill="#00E8F7"/>
<path fill-rule="evenodd" clip-rule="evenodd" d="M501.951 126.611H447.475V112H501.951V126.611Z" fill="white"/>
<path fill-rule="evenodd" clip-rule="evenodd" d="M422 254.154L466.64 119.732L482.529 119.732L438.646 254.154L422 254.154Z" fill="white"/>
<path fill-rule="evenodd" clip-rule="evenodd" d="M527.17 254.154L482.529 119.732L466.64 119.732L509.154 254.154H527.17Z" fill="white"/>
<path fill-rule="evenodd" clip-rule="evenodd" d="M208.786 124.433C177.253 124.433 151.433 150.546 151.433 183.08C151.433 215.614 177.253 241.727 208.786 241.727V257.16C168.445 257.16 136 223.849 136 183.08C136 142.311 168.445 109 208.786 109V124.433Z" fill="white"/>
<path fill-rule="evenodd" clip-rule="evenodd" d="M345 112H360.433L360.433 238.553H400.99V253.987H345L345 112Z" fill="white"/>
</svg>
